<mxfile host="65bd71144e">
    <diagram id="Rq13p1JFfaEy2UC2hHui" name="第1頁">
        <mxGraphModel dx="1130" dy="792" grid="1" gridSize="10" guides="1" tooltips="1" connect="1" arrows="1" fold="1" page="1" pageScale="1" pageWidth="827" pageHeight="1169" math="0" shadow="0">
            <root>
                <mxCell id="0"/>
                <mxCell id="1" parent="0"/>
                <mxCell id="4" style="edgeStyle=none;html=1;exitX=1;exitY=0.5;exitDx=0;exitDy=0;entryX=0;entryY=0.5;entryDx=0;entryDy=0;" edge="1" parent="1" source="2" target="3">
                    <mxGeometry relative="1" as="geometry"/>
                </mxCell>
                <mxCell id="2" value="boss" style="html=1;" vertex="1" parent="1">
                    <mxGeometry x="160" y="250" width="110" height="50" as="geometry"/>
                </mxCell>
                <mxCell id="3" value="subordinate" style="html=1;" vertex="1" parent="1">
                    <mxGeometry x="500" y="250" width="110" height="50" as="geometry"/>
                </mxCell>
                <mxCell id="8" value="work" style="text;strokeColor=none;fillColor=none;html=1;fontSize=24;fontStyle=1;verticalAlign=middle;align=center;" vertex="1" parent="1">
                    <mxGeometry x="314" y="190" width="100" height="40" as="geometry"/>
                </mxCell>
                <mxCell id="9" value="" style="triangle;whiteSpace=wrap;html=1;fillColor=#1ba1e2;fontColor=#ffffff;strokeColor=#006EAF;" vertex="1" parent="1">
                    <mxGeometry x="420" y="180" width="40" height="50" as="geometry"/>
                </mxCell>
                <mxCell id="10" value="1" style="text;strokeColor=none;fillColor=none;html=1;fontSize=24;fontStyle=1;verticalAlign=middle;align=center;" vertex="1" parent="1">
                    <mxGeometry x="220" y="300" width="100" height="40" as="geometry"/>
                </mxCell>
                <mxCell id="11" value="1" style="text;strokeColor=none;fillColor=none;html=1;fontSize=24;fontStyle=1;verticalAlign=middle;align=center;" vertex="1" parent="1">
                    <mxGeometry x="450" y="310" width="100" height="40" as="geometry"/>
                </mxCell>
            </root>
        </mxGraphModel>
    </diagram>
</mxfile>